<svg xmlns="http://www.w3.org/2000/svg" xmlns:xlink="http://www.w3.org/1999/xlink" width="1080" zoomAndPan="magnify" viewBox="0 0 810 809.999993" height="1080" preserveAspectRatio="xMidYMid meet" version="1.0"><defs><clipPath id="12c3f32bd2"><path d="M 83.117188 198.183594 L 404.867188 198.183594 L 404.867188 612.183594 L 83.117188 612.183594 Z M 83.117188 198.183594 " clip-rule="nonzero"/></clipPath><clipPath id="2593372a3d"><path d="M 405 198.183594 L 726.75 198.183594 L 726.75 612.183594 L 405 612.183594 Z M 405 198.183594 " clip-rule="nonzero"/></clipPath><clipPath id="80ecc8cfc1"><path d="M 0.128906 0.183594 L 321.75 0.183594 L 321.75 414.183594 L 0.128906 414.183594 Z M 0.128906 0.183594 " clip-rule="nonzero"/></clipPath><clipPath id="ca01dc5d9b"><rect x="0" width="322" y="0" height="415"/></clipPath></defs><rect x="-81" width="972" fill="#ffffff" y="-80.999999" height="971.999992" fill-opacity="1"/><rect x="-81" width="972" fill="#f1f1f1" y="-80.999999" height="971.999992" fill-opacity="1"/><g clip-path="url(#12c3f32bd2)"><path fill="#000000" d="M 395.734375 244.21875 L 395.734375 225.757812 L 386.554688 225.757812 L 386.554688 216.566406 L 377.375 216.566406 L 377.375 207.375 L 359.019531 207.375 L 359.019531 198.183594 L 166.015625 198.183594 L 166.015625 207.375 L 101.679688 207.375 L 101.679688 198.183594 L 83.324219 198.183594 L 83.324219 225.757812 L 92.5 225.757812 L 92.5 244.136719 L 101.679688 244.136719 L 101.679688 253.328125 L 110.859375 253.328125 L 110.859375 262.519531 L 138.394531 262.519531 L 138.394531 271.710938 L 196.609375 271.710938 L 196.609375 280.984375 L 175.195312 280.984375 L 175.195312 290.175781 L 166.015625 290.175781 L 166.015625 299.363281 L 156.835938 299.363281 L 156.835938 308.554688 L 147.65625 308.554688 L 147.65625 323.875 L 138.476562 323.875 L 138.476562 363.785156 L 120.039062 363.785156 L 120.039062 372.972656 L 110.859375 372.972656 L 110.859375 382.164062 L 101.679688 382.164062 L 101.679688 400.546875 L 92.5 400.546875 L 92.5 428.117188 L 97.960938 428.117188 L 97.960938 446.582031 L 104.738281 446.582031 L 104.738281 455.773438 L 116.980469 455.773438 L 116.980469 443.519531 L 126.15625 443.519531 L 126.15625 434.328125 L 138.394531 434.328125 L 138.394531 537.167969 L 129.21875 537.167969 L 129.21875 547.847656 L 147.574219 547.847656 L 147.574219 538.65625 L 166.015625 538.65625 L 166.015625 529.382812 L 175.195312 529.382812 L 175.195312 520.191406 L 193.550781 520.191406 L 193.550781 504.875 L 202.730469 504.875 L 202.730469 486.492188 L 211.910156 486.492188 L 211.910156 280.984375 L 221.085938 280.984375 L 221.085938 271.792969 L 230.265625 271.792969 L 230.265625 529.382812 L 184.289062 529.382812 L 184.289062 538.574219 L 166.015625 538.574219 L 166.015625 547.765625 L 147.65625 547.765625 L 147.65625 556.957031 L 138.476562 556.957031 L 138.476562 566.148438 L 129.300781 566.148438 L 129.300781 575.335938 L 120.039062 575.335938 L 120.039062 584.527344 L 110.859375 584.527344 L 110.859375 593.71875 L 101.679688 593.71875 L 101.679688 612.183594 L 110.859375 612.183594 L 110.859375 602.992188 L 129.21875 602.992188 L 129.21875 593.800781 L 239.445312 593.800781 L 239.445312 602.992188 L 266.980469 602.992188 L 266.980469 612.183594 L 294.519531 612.183594 L 294.519531 602.992188 L 306.757812 602.992188 L 306.757812 593.800781 L 325.113281 593.800781 L 325.113281 584.609375 L 343.472656 584.609375 L 343.472656 575.421875 L 374.066406 575.421875 L 374.066406 566.230469 L 404.664062 566.230469 L 404.664062 244.21875 Z M 331.398438 547.765625 L 313.039062 547.765625 L 313.039062 538.574219 L 285.503906 538.574219 L 285.503906 529.382812 L 257.96875 529.382812 L 257.96875 520.191406 L 248.707031 520.191406 L 248.707031 455.773438 L 270.125 455.773438 L 270.125 446.582031 L 313.039062 446.582031 L 313.039062 455.773438 L 331.398438 455.773438 Z M 331.398438 431.265625 L 261.359375 431.265625 L 261.359375 438.054688 L 248.707031 438.054688 L 248.707031 363.785156 L 260.613281 363.785156 L 260.613281 370.40625 L 317.835938 370.40625 L 317.835938 363.785156 L 331.398438 363.785156 Z M 331.398438 345.402344 L 320.152344 345.402344 L 320.152344 353.183594 L 266.652344 353.183594 L 266.652344 345.402344 L 248.707031 345.402344 L 248.707031 271.792969 L 257.886719 271.792969 L 257.886719 262.601562 L 322.21875 262.601562 L 322.21875 271.792969 L 331.398438 271.792969 Z M 331.398438 345.402344 " fill-opacity="1" fill-rule="nonzero"/></g><g clip-path="url(#2593372a3d)"><g transform="matrix(1, 0, 0, 1, 405, 198)"><g clip-path="url(#ca01dc5d9b)"><g clip-path="url(#80ecc8cfc1)"><path fill="#000000" d="M 9.265625 46.21875 L 9.265625 27.757812 L 18.441406 27.757812 L 18.441406 18.566406 L 27.621094 18.566406 L 27.621094 9.375 L 45.980469 9.375 L 45.980469 0.183594 L 238.980469 0.183594 L 238.980469 9.375 L 303.316406 9.375 L 303.316406 0.183594 L 321.675781 0.183594 L 321.675781 27.757812 L 312.496094 27.757812 L 312.496094 46.136719 L 303.316406 46.136719 L 303.316406 55.328125 L 294.136719 55.328125 L 294.136719 64.519531 L 266.601562 64.519531 L 266.601562 73.710938 L 208.386719 73.710938 L 208.386719 82.984375 L 229.804688 82.984375 L 229.804688 92.175781 L 238.980469 92.175781 L 238.980469 101.363281 L 248.160156 101.363281 L 248.160156 110.554688 L 257.339844 110.554688 L 257.339844 125.875 L 266.519531 125.875 L 266.519531 165.785156 L 284.960938 165.785156 L 284.960938 174.972656 L 294.136719 174.972656 L 294.136719 184.164062 L 303.316406 184.164062 L 303.316406 202.546875 L 312.496094 202.546875 L 312.496094 230.117188 L 307.039062 230.117188 L 307.039062 248.582031 L 300.257812 248.582031 L 300.257812 257.773438 L 288.019531 257.773438 L 288.019531 245.519531 L 278.839844 245.519531 L 278.839844 236.328125 L 266.601562 236.328125 L 266.601562 339.167969 L 275.78125 339.167969 L 275.78125 349.847656 L 257.421875 349.847656 L 257.421875 340.65625 L 238.980469 340.65625 L 238.980469 331.382812 L 229.804688 331.382812 L 229.804688 322.191406 L 211.445312 322.191406 L 211.445312 306.875 L 202.265625 306.875 L 202.265625 288.492188 L 193.089844 288.492188 L 193.089844 82.984375 L 183.910156 82.984375 L 183.910156 73.792969 L 174.730469 73.792969 L 174.730469 331.382812 L 220.707031 331.382812 L 220.707031 340.574219 L 238.980469 340.574219 L 238.980469 349.765625 L 257.339844 349.765625 L 257.339844 358.957031 L 266.519531 358.957031 L 266.519531 368.148438 L 275.699219 368.148438 L 275.699219 377.335938 L 284.960938 377.335938 L 284.960938 386.527344 L 294.136719 386.527344 L 294.136719 395.71875 L 303.316406 395.71875 L 303.316406 414.183594 L 294.136719 414.183594 L 294.136719 404.992188 L 275.78125 404.992188 L 275.78125 395.800781 L 165.550781 395.800781 L 165.550781 404.992188 L 138.015625 404.992188 L 138.015625 414.183594 L 110.480469 414.183594 L 110.480469 404.992188 L 98.242188 404.992188 L 98.242188 395.800781 L 79.882812 395.800781 L 79.882812 386.609375 L 61.527344 386.609375 L 61.527344 377.421875 L 30.929688 377.421875 L 30.929688 368.230469 L 0.332031 368.230469 L 0.332031 46.21875 Z M 73.597656 349.765625 L 91.957031 349.765625 L 91.957031 340.574219 L 119.492188 340.574219 L 119.492188 331.382812 L 147.027344 331.382812 L 147.027344 322.191406 L 156.289062 322.191406 L 156.289062 257.773438 L 134.875 257.773438 L 134.875 248.582031 L 91.957031 248.582031 L 91.957031 257.773438 L 73.597656 257.773438 Z M 73.597656 233.265625 L 143.636719 233.265625 L 143.636719 240.054688 L 156.289062 240.054688 L 156.289062 165.785156 L 144.382812 165.785156 L 144.382812 172.40625 L 87.160156 172.40625 L 87.160156 165.785156 L 73.597656 165.785156 Z M 73.597656 147.402344 L 84.84375 147.402344 L 84.84375 155.183594 L 138.347656 155.183594 L 138.347656 147.402344 L 156.289062 147.402344 L 156.289062 73.792969 L 147.113281 73.792969 L 147.113281 64.601562 L 82.777344 64.601562 L 82.777344 73.792969 L 73.597656 73.792969 Z M 73.597656 147.402344 " fill-opacity="1" fill-rule="nonzero"/></g></g></g></g></svg>