<svg xmlns="http://www.w3.org/2000/svg" xmlns:xlink="http://www.w3.org/1999/xlink" width="1080" zoomAndPan="magnify" viewBox="0 0 810 809.999993" height="1080" preserveAspectRatio="xMidYMid meet" version="1.0"><defs><clipPath id="6c8384102a"><path d="M 244.058594 198.183594 L 565.808594 198.183594 L 565.808594 612.183594 L 244.058594 612.183594 Z M 244.058594 198.183594 " clip-rule="nonzero"/></clipPath></defs><rect x="-81" width="972" fill="#ffffff" y="-80.999999" height="971.999992" fill-opacity="1"/><rect x="-81" width="972" fill="#f1f1f1" y="-80.999999" height="971.999992" fill-opacity="1"/><g clip-path="url(#6c8384102a)"><path fill="#000000" d="M 556.671875 244.21875 L 556.671875 225.757812 L 547.496094 225.757812 L 547.496094 216.566406 L 538.316406 216.566406 L 538.316406 207.375 L 519.957031 207.375 L 519.957031 198.183594 L 326.957031 198.183594 L 326.957031 207.375 L 262.621094 207.375 L 262.621094 198.183594 L 244.265625 198.183594 L 244.265625 225.757812 L 253.441406 225.757812 L 253.441406 244.136719 L 262.621094 244.136719 L 262.621094 253.328125 L 271.800781 253.328125 L 271.800781 262.519531 L 299.335938 262.519531 L 299.335938 271.710938 L 357.550781 271.710938 L 357.550781 280.984375 L 336.132812 280.984375 L 336.132812 290.175781 L 326.957031 290.175781 L 326.957031 299.363281 L 317.777344 299.363281 L 317.777344 308.554688 L 308.597656 308.554688 L 308.597656 323.875 L 299.417969 323.875 L 299.417969 363.785156 L 280.980469 363.785156 L 280.980469 372.972656 L 271.800781 372.972656 L 271.800781 382.164062 L 262.621094 382.164062 L 262.621094 400.546875 L 253.441406 400.546875 L 253.441406 428.117188 L 258.898438 428.117188 L 258.898438 446.582031 L 265.679688 446.582031 L 265.679688 455.773438 L 277.917969 455.773438 L 277.917969 443.519531 L 287.097656 443.519531 L 287.097656 434.328125 L 299.335938 434.328125 L 299.335938 537.167969 L 290.15625 537.167969 L 290.15625 547.847656 L 308.515625 547.847656 L 308.515625 538.65625 L 326.957031 538.65625 L 326.957031 529.382812 L 336.132812 529.382812 L 336.132812 520.191406 L 354.492188 520.191406 L 354.492188 504.875 L 363.671875 504.875 L 363.671875 486.492188 L 372.851562 486.492188 L 372.851562 280.984375 L 382.027344 280.984375 L 382.027344 271.792969 L 391.207031 271.792969 L 391.207031 529.382812 L 345.230469 529.382812 L 345.230469 538.574219 L 326.957031 538.574219 L 326.957031 547.765625 L 308.597656 547.765625 L 308.597656 556.957031 L 299.417969 556.957031 L 299.417969 566.148438 L 290.242188 566.148438 L 290.242188 575.335938 L 280.980469 575.335938 L 280.980469 584.527344 L 271.800781 584.527344 L 271.800781 593.71875 L 262.621094 593.71875 L 262.621094 612.183594 L 271.800781 612.183594 L 271.800781 602.992188 L 290.15625 602.992188 L 290.15625 593.800781 L 400.386719 593.800781 L 400.386719 602.992188 L 427.921875 602.992188 L 427.921875 612.183594 L 455.457031 612.183594 L 455.457031 602.992188 L 467.699219 602.992188 L 467.699219 593.800781 L 486.054688 593.800781 L 486.054688 584.609375 L 504.414062 584.609375 L 504.414062 575.421875 L 535.007812 575.421875 L 535.007812 566.230469 L 565.605469 566.230469 L 565.605469 244.21875 Z M 492.339844 547.765625 L 473.980469 547.765625 L 473.980469 538.574219 L 446.445312 538.574219 L 446.445312 529.382812 L 418.910156 529.382812 L 418.910156 520.191406 L 409.648438 520.191406 L 409.648438 455.773438 L 431.066406 455.773438 L 431.066406 446.582031 L 473.980469 446.582031 L 473.980469 455.773438 L 492.339844 455.773438 Z M 492.339844 431.265625 L 422.300781 431.265625 L 422.300781 438.054688 L 409.648438 438.054688 L 409.648438 363.785156 L 421.554688 363.785156 L 421.554688 370.40625 L 478.777344 370.40625 L 478.777344 363.785156 L 492.339844 363.785156 Z M 492.339844 345.402344 L 481.09375 345.402344 L 481.09375 353.183594 L 427.589844 353.183594 L 427.589844 345.402344 L 409.648438 345.402344 L 409.648438 271.792969 L 418.828125 271.792969 L 418.828125 262.601562 L 483.160156 262.601562 L 483.160156 271.792969 L 492.339844 271.792969 Z M 492.339844 345.402344 " fill-opacity="1" fill-rule="nonzero"/></g></svg>